<svg width="43" height="43" viewBox="0 0 43 43" fill="none" xmlns="http://www.w3.org/2000/svg">
<mask id="mask0_0_78" style="mask-type:alpha" maskUnits="userSpaceOnUse" x="1" y="1" width="41" height="42">
<path fill-rule="evenodd" clip-rule="evenodd" d="M29.7575 3.53737C28.6311 1.58635 26.1242 0.912143 24.2586 2.17506C13.9158 9.17674 5.83663 19.2697 1.34769 31.1275C0.535277 33.2735 1.83386 35.589 4.05033 36.1829L25.8019 42.0112C27.8761 42.567 29.9993 41.398 30.9337 39.4645C32.9778 35.2347 35.97 31.5487 39.6344 28.6825C41.393 27.307 42.0653 24.8551 40.949 22.9217L29.7575 3.53737Z" fill="url(#paint0_linear_0_78)"/>
</mask>
<g mask="url(#mask0_0_78)">
<path fill-rule="evenodd" clip-rule="evenodd" d="M29.7575 3.53737C28.6311 1.58635 26.1242 0.912143 24.2586 2.17506C13.9158 9.17674 5.83663 19.2697 1.34769 31.1275C0.535277 33.2735 1.83386 35.589 4.05033 36.1829L25.8019 42.0112C27.8761 42.567 29.9993 41.398 30.9337 39.4645C32.9778 35.2347 35.97 31.5487 39.6344 28.6825C41.393 27.307 42.0653 24.8551 40.949 22.9217L29.7575 3.53737Z" fill="#94E9B8"/>
</g>
<defs>
<linearGradient id="paint0_linear_0_78" x1="42.9655" y1="0" x2="30.253" y2="21.7408" gradientUnits="userSpaceOnUse">
<stop/>
<stop offset="1"/>
</linearGradient>
</defs>
</svg>
