<svg width="52" height="74" viewBox="0 0 52 74" fill="none" xmlns="http://www.w3.org/2000/svg">
<mask id="mask0_0_71" style="mask-type:alpha" maskUnits="userSpaceOnUse" x="0" y="0" width="52" height="73">
<path fill-rule="evenodd" clip-rule="evenodd" d="M0 15.5481C0 11.5795 0.381849 7.69999 1.11081 3.94444C1.53641 1.75178 3.76721 0.469497 5.92469 1.04759L27.3835 6.79746C29.5292 7.37239 30.7784 9.57353 30.5045 11.7779C30.3511 13.0131 30.272 14.2714 30.272 15.5481C30.272 27.9097 37.6814 38.5408 48.3014 43.2424C50.3055 44.1296 51.5472 46.2875 50.9799 48.4046L45.2187 69.9055C44.6371 72.0764 42.3871 73.3665 40.2693 72.614C16.803 64.2763 0 41.8745 0 15.5481Z" fill="url(#paint0_linear_0_71)"/>
</mask>
<g mask="url(#mask0_0_71)">
<path fill-rule="evenodd" clip-rule="evenodd" d="M0 15.5481C0 11.5795 0.381849 7.69999 1.11081 3.94444C1.53641 1.75178 3.76721 0.469497 5.92469 1.04759L27.3835 6.79746C29.5292 7.37239 30.7784 9.57353 30.5045 11.7779C30.3511 13.0131 30.272 14.2714 30.272 15.5481C30.272 27.9097 37.6814 38.5408 48.3014 43.2424C50.3055 44.1296 51.5472 46.2875 50.9799 48.4046L45.2187 69.9055C44.6371 72.0764 42.3871 73.3665 40.2693 72.614C16.803 64.2763 0 41.8745 0 15.5481Z" fill="#92BFFF"/>
</g>
<defs>
<linearGradient id="paint0_linear_0_71" x1="52" y1="0" x2="27.3777" y2="29.6742" gradientUnits="userSpaceOnUse">
<stop/>
<stop offset="1"/>
</linearGradient>
</defs>
</svg>
