<svg width="75" height="120" viewBox="0 0 75 120" fill="none" xmlns="http://www.w3.org/2000/svg">
<mask id="mask0_0_64" style="mask-type:alpha" maskUnits="userSpaceOnUse" x="0" y="0" width="75" height="120">
<path fill-rule="evenodd" clip-rule="evenodd" d="M0.793942 115.322C0.358313 116.948 1.34382 118.621 2.99718 118.936C6.65911 119.635 10.439 120 14.3043 120C47.4504 120 74.3207 93.1298 74.3207 59.9836C74.3207 28.5541 50.1615 2.76725 19.4007 0.180626C17.7109 0.0385301 16.3048 1.4049 16.3048 3.10071L16.3048 27.2313C16.3048 28.8121 17.5358 30.1055 19.0966 30.3561C33.3918 32.6504 44.3125 45.0417 44.3125 59.9836C44.3125 76.5567 30.8774 89.9918 14.3043 89.9918C13.0511 89.9918 11.8158 89.915 10.6029 89.7658C9.0082 89.5696 7.44428 90.5024 7.02843 92.0544L0.793942 115.322Z" fill="url(#paint0_linear_0_64)"/>
</mask>
<g mask="url(#mask0_0_64)">
<path fill-rule="evenodd" clip-rule="evenodd" d="M0.793942 115.322C0.358313 116.948 1.34382 118.621 2.99718 118.936C6.65911 119.635 10.439 120 14.3043 120C47.4504 120 74.3207 93.1298 74.3207 59.9836C74.3207 28.5541 50.1615 2.76725 19.4007 0.180626C17.7109 0.0385301 16.3048 1.4049 16.3048 3.10071L16.3048 27.2313C16.3048 28.8121 17.5358 30.1055 19.0966 30.3561C33.3918 32.6504 44.3125 45.0417 44.3125 59.9836C44.3125 76.5567 30.8774 89.9918 14.3043 89.9918C13.0511 89.9918 11.8158 89.915 10.6029 89.7658C9.0082 89.5696 7.44428 90.5024 7.02843 92.0544L0.793942 115.322Z" fill="url(#paint1_linear_0_64)"/>
<path fill-rule="evenodd" clip-rule="evenodd" d="M0.793942 115.322C0.358313 116.948 1.34382 118.621 2.99718 118.936C6.65911 119.635 10.439 120 14.3043 120C47.4504 120 74.3207 93.1298 74.3207 59.9836C74.3207 28.5541 50.1615 2.76725 19.4007 0.180626C17.7109 0.0385301 16.3048 1.4049 16.3048 3.10071L16.3048 27.2313C16.3048 28.8121 17.5358 30.1055 19.0966 30.3561C33.3918 32.6504 44.3125 45.0417 44.3125 59.9836C44.3125 76.5567 30.8774 89.9918 14.3043 89.9918C13.0511 89.9918 11.8158 89.915 10.6029 89.7658C9.0082 89.5696 7.44428 90.5024 7.02843 92.0544L0.793942 115.322Z" fill="black" style="mix-blend-mode:screen"/>
</g>
<defs>
<linearGradient id="paint0_linear_0_64" x1="74.3207" y1="0" x2="33.6817" y2="43.0792" gradientUnits="userSpaceOnUse">
<stop/>
<stop offset="1"/>
</linearGradient>
<linearGradient id="paint1_linear_0_64" x1="37.1603" y1="0" x2="37.1603" y2="120" gradientUnits="userSpaceOnUse">
<stop/>
<stop offset="1" stop-color="#1C1C1C" stop-opacity="0.6"/>
<stop offset="1" stop-opacity="0.6"/>
</linearGradient>
</defs>
</svg>
